<?xml version='1.0' ?>
<svg xmlns="http://www.w3.org/2000/svg" xmlns:xlink="http://www.w3.org/1999/xlink" version="1.1" width="165.0" height="117.0">
  <style type="text/css">text {
  font-family: Consolas , &quot;DejaVu Sans Mono&quot; , monospace;
  font-size: 16.0px;
}
.dashed_elem {
  stroke-dasharray: 4.0 , 3.0;
}
.filled_shape {
  fill: url(#shape_light);
}
.bullet {
  stroke-width: 1.0px;
  fill: #FFFFFF;
  stroke: #000000;
}
</style>
  <defs>
    <linearGradient id="shape_light" gradientTransform="" gradientUnits="objectBoundingBox" spreadMethod="pad" x1="0%" y1="0%" x2="0%" y2="100%">
      <stop offset="0%" stop-color="#F5F5F5" />
      <stop offset="100%" stop-color="#D8D8D8" />
    </linearGradient>
  </defs>
  <path stroke-width="1.0" stroke="#000000" fill="none" class="line_element" d="M60.0,56.0 L60.0,56.0" />
  <g stroke-width="1.0" stroke="#000000" fill="none" class="line_element">
    <path class="" d="M60.0,56.0 L60.0,56.0 L20.0,56.0 L10.0,56.0" />
    <path stroke-width="0.0" stroke="none" fill="#000000" class="" d="M10.0,49.0 L0.0,56.0 L10.0,63.0 Z" />
  </g>
  <g stroke-width="1.0" stroke="#000000" fill="none" class="line_element">
    <path class="" d="M60.0,56.0 L60.0,56.0 L60.0,28.0 L60.0,14.0" />
    <path stroke-width="0.0" stroke="none" fill="#000000" class="" d="M55.0,14.0 L65.0,14.0 L60.0,0.0 Z" />
  </g>
  <g stroke-width="1.0" stroke="#000000" fill="none" class="line_element">
    <path class="" d="M60.0,56.0 L60.0,56.0 L100.0,56.0 L110.0,56.0" />
    <path stroke-width="0.0" stroke="none" fill="#000000" class="" d="M110.0,49.0 L120.0,56.0 L110.0,63.0 Z" />
  </g>
  <g stroke-width="1.0" stroke="#000000" fill="none" class="line_element">
    <path class="" d="M60.0,98.0 L60.0,98.0 L60.0,70.0 L60.0,56.0" />
    <path stroke-width="0.0" stroke="none" fill="#000000" class="" d="M55.0,98.0 L65.0,98.0 L60.0,112.0 Z" />
  </g>
  <text class="" x="85.5" y="77.5">&lt; &gt; v ^</text>
</svg>
